# File created by Blade
# Date/Time:  Tue Jan 27 19:58:39 2015
#---------------------------------------------------------
:version 1.10
:name HOM
:units
  mass 1.0
  length 1.000000
  angle deg
:documentation
     Acclaim Skeleton File
:root
   axis xyz
   order TX TY TZ RX RY RZ
   position 0.000000 0.000000 0.000000
   orientation 0 0 0
:bonedata
   begin
      id 1
      name Spine_dum
      direction 0.000000 1.000000 0.000000
      length 6.116652
      axis 0.0 0.0 0.0 xyz
   end
   begin
      id 2
      name LeftUpLeg_dum
      direction 1.000000 0.000000 0.000000
      length 4.711765
      axis 0.0 0.0 0.0 xyz
   end
   begin
      id 3
      name RightUpLeg_dum
      direction -1.000000 0.000000 0.000000
      length 4.711765
      axis 0.0 0.0 0.0 xyz
   end
   begin
      id 4
      name Spine
      direction 0.000000 1.000000 0.000000
      length 0.000000
      axis 0.0 0.0 0.0 xyz
      dof rx ry rz
   end
   begin
      id 5
      name Spine_dum1
      direction 0.000000 1.000000 0.000000
      length 15.225563
      axis 0.0 0.0 0.0 xyz
   end
   begin
      id 6
      name Spine_dum2
      direction 0.000000 1.000000 0.000000
      length 8.977654
      axis 0.0 0.0 0.0 xyz
   end
   begin
      id 7
      name Spine_dum3
      direction 0.000000 1.000000 0.000000
      length 8.977654
      axis 0.0 0.0 0.0 xyz
   end
   begin
      id 8
      name Head
      direction 0.000000 1.000000 0.000000
      length 4.527550
      axis 0.0 0.0 0.0 xyz
      dof rx ry rz
   end
   begin
      id 9
      name LeftShoulder
      direction 1.000000 0.000000 0.000000
      length 7.110130
      axis 0.0 0.0 -90.0 xyz
      dof rx ry rz
   end
   begin
      id 10
      name LeftArm
      direction 1.000000 0.000000 0.000000
      length 10.398341
      axis 0.0 0.0 -90.0 xyz
      dof rx ry rz
   end
   begin
      id 11
      name LeftForeArm
      direction 1.000000 0.000000 0.000000
      length 8.888997
      axis 0.0 0.0 -90.0 xyz
      dof ry rz rx
   end
   begin
      id 12
      name LeftHand
      direction 0.000000 0.000000 0.000000
      length 0.000000
      axis 0.0 0.0 -90.0 xyz
      dof rx ry rz
   end
   begin
      id 13
      name LeftHand_dum1
      direction 0.000000 0.000000 0.000000
      length 0.000000
      axis 0.0 0.0 -90.0 xyz
   end
   begin
      id 14
      name LeftHand_dum2
      direction 1.000000 0.000000 0.000000
      length 3.937000
      axis 0.0 0.0 -90.0 xyz
   end
   begin
      id 15
      name LeftHandThumb1
      direction 0.000000 0.000000 1.000000
      length 3.937000
      axis 0.0 0.0 -90.0 xyz
      dof rx rz ry
   end
   begin
      id 16
      name RightShoulder
      direction -1.000000 0.000000 0.000000
      length 7.110130
      axis 0.0 0.0 90.0 xyz
      dof rx ry rz
   end
   begin
      id 17
      name RightArm
      direction -1.000000 0.000000 0.000000
      length 10.398341
      axis 0.0 0.0 90.0 xyz
      dof rx ry rz
   end
   begin
      id 18
      name RightForeArm
      direction -1.000000 0.000000 0.000000
      length 8.888997
      axis 0.0 0.0 90.0 xyz
      dof ry rz rx
   end
   begin
      id 19
      name RightHand
      direction 0.000000 0.000000 0.000000
      length 0.000000
      axis 0.0 0.0 90.0 xyz
      dof rx ry rz
   end
   begin
      id 20
      name RightHand_dum1
      direction 0.000000 0.000000 0.000000
      length 0.000000
      axis 0.0 0.0 90.0 xyz
   end
   begin
      id 21
      name RightHand_dum2
      direction -1.000000 0.000000 0.000000
      length 3.937000
      axis 0.0 0.0 90.0 xyz
   end
   begin
      id 22
      name RightHandThumb1
      direction 0.000000 0.000000 1.000000
      length 3.937000
      axis 0.0 0.0 90.0 xyz
      dof rx rz ry
   end
   begin
      id 23
      name LeftUpLeg
      direction 0.000000 -1.000000 0.000000
      length 15.510451
      axis 0.0 0.0 0.0 xyz
      dof rx ry rz
   end
   begin
      id 24
      name LeftLeg
      direction 0.000000 -1.000000 0.000000
      length 14.858061
      axis 0.0 0.0 0.0 xyz
      dof rx ry rz
   end
   begin
      id 25
      name LeftFoot
      direction 0.000000 -0.258819 0.965926
      length 5.128852
      axis 15.0 0.0 0.0 xyz
      dof rx ry rz
   end
   begin
      id 26
      name LeftToeBase
      direction 0.000000 0.000000 1.000000
      length 2.952750
      axis 0.0 0.0 0.0 xyz
      dof rx ry rz
   end
   begin
      id 27
      name RightUpLeg
      direction 0.000000 -1.000000 0.000000
      length 15.510451
      axis 0.0 0.0 0.0 xyz
      dof rx ry rz
   end
   begin
      id 28
      name RightLeg
      direction 0.000000 -1.000000 0.000000
      length 14.858061
      axis 0.0 0.0 0.0 xyz
      dof rx ry rz
   end
   begin
      id 29
      name RightFoot
      direction 0.000000 -0.258819 0.965926
      length 5.128852
      axis 15.0 0.0 0.0 xyz
      dof rx ry rz
   end
   begin
      id 30
      name RightToeBase
      direction 0.000000 0.000000 1.000000
      length 2.952750
      axis 0.0 0.0 0.0 xyz
      dof rx ry rz
   end
:hierarchy
   begin
      root Spine_dum LeftUpLeg_dum RightUpLeg_dum
      Spine_dum Spine
      LeftUpLeg_dum LeftUpLeg
      RightUpLeg_dum RightUpLeg
      Spine Spine_dum1 Spine_dum2 Spine_dum3
      Spine_dum1 Head
      Spine_dum2 LeftShoulder
      Spine_dum3 RightShoulder
      LeftShoulder LeftArm
      LeftArm LeftForeArm
      LeftForeArm LeftHand
      LeftHand LeftHand_dum1 LeftHand_dum2
      LeftHand_dum1 LeftHandThumb1
      RightShoulder RightArm
      RightArm RightForeArm
      RightForeArm RightHand
      RightHand RightHand_dum1 RightHand_dum2
      RightHand_dum1 RightHandThumb1
      LeftUpLeg LeftLeg
      LeftLeg LeftFoot
      LeftFoot LeftToeBase
      RightUpLeg RightLeg
      RightLeg RightFoot
      RightFoot RightToeBase
   end

# File created by Blade
# Date/Time:  Tue Jan 27 19:58:31 2015
# Frame Rate: 120.000 fps
#------------------------------------------------------
:FULLY-SPECIFIED
:DEGREES
121
root 5.003959 32.610801 1.555982 -6.662658 -2.661361 -5.733844
Spine 12.390406 8.785637 8.821967
Head -1.048597 -4.792827 -4.141314
LeftShoulder -17.640158 -2.719466 25.766661
LeftArm -2.003664 -13.628826 -84.411951
LeftForeArm -8.143210 0.000000 122.837307
LeftHand 2.460185 -0.000000 10.180991
LeftHandThumb1 -26.253704 0.000000 33.147579
RightShoulder -17.971701 -17.534706 -24.634676
RightArm 8.124292 -17.930151 90.078297
RightForeArm -27.623691 -0.000000 88.324193
RightHand 17.429311 -0.000000 5.417024
RightHandThumb1 -24.326973 -0.000000 -32.862282
LeftUpLeg 5.873472 0.163222 -1.011218
LeftLeg 8.159961 -0.000000 -0.000000
LeftFoot -20.261980 21.600516 -17.455616
LeftToeBase 16.122658 -0.000000 -0.000000
RightUpLeg -85.067894 3.914607 10.484937
RightLeg 108.778737 -0.000000 -0.000000
RightFoot 6.173591 -34.595537 19.637726
RightToeBase 14.878490 -0.000000 -0.000000
122
root 4.993448 32.614814 1.575214 -6.694889 -2.784279 -5.874768
Spine 12.426551 8.540926 8.989721
Head -0.944830 -4.475244 -4.333497
LeftShoulder -18.045606 -2.480800 25.613349
LeftArm -2.220894 -14.356438 -84.004372
LeftForeArm -8.373563 0.000000 122.816797
LeftHand 2.462155 -0.000000 9.982981
LeftHandThumb1 -26.253704 0.000000 33.147579
RightShoulder -17.616526 -17.231880 -24.757254
RightArm 8.214897 -17.826260 90.077168
RightForeArm -27.558274 -0.000000 87.598701
RightHand 17.455858 -0.000000 5.210401
RightHandThumb1 -24.326973 -0.000000 -32.862282
LeftUpLeg 5.928023 0.528462 -0.796648
LeftLeg 8.235353 -0.000000 -0.000000
LeftFoot -20.277332 21.342716 -17.173483
LeftToeBase 15.950725 -0.000000 -0.000000
RightUpLeg -85.515256 4.264443 10.659465
RightLeg 108.567241 -0.000000 -0.000000
RightFoot 5.760536 -35.099019 19.672912
RightToeBase 14.973963 -0.000000 -0.000000
123
root 5.004488 32.612090 1.609125 -6.789927 -2.939342 -5.884892
Spine 12.469103 8.972351 9.137284
Head -0.650839 -4.810816 -4.360264
LeftShoulder -17.839455 -2.474162 25.608926
LeftArm -2.527315 -14.982868 -83.684102
LeftForeArm -8.609242 -0.000000 122.785681
LeftHand 2.459931 -0.000000 9.864972
LeftHandThumb1 -26.253704 0.000000 33.147579
RightShoulder -17.811834 -17.287634 -24.656795
RightArm 8.386641 -17.679030 89.985487
RightForeArm -27.391890 -0.000000 86.812261
RightHand 17.252912 -0.000000 5.265844
RightHandThumb1 -24.326973 -0.000000 -32.862282
LeftUpLeg 6.104843 0.447579 -0.839362
LeftLeg 8.255006 -0.000000 -0.000000
LeftFoot -20.480933 21.560457 -17.160083
LeftToeBase 15.820326 -0.000000 -0.000000
RightUpLeg -85.868296 4.675448 10.599934
RightLeg 108.424560 -0.000000 -0.000000
RightFoot 5.817190 -35.462473 19.204553
RightToeBase 14.260059 -0.000000 -0.000000
124
root 5.067674 32.566830 1.626417 -6.777481 -3.061501 -5.149753
Spine 12.371791 9.407414 8.347885
Head -0.409924 -5.031222 -4.078391
LeftShoulder -17.695044 -2.334968 25.973324
LeftArm -2.805910 -15.666870 -83.529194
LeftForeArm -8.978797 0.000000 122.727449
LeftHand 2.431624 -0.000000 9.882856
LeftHandThumb1 -26.253704 0.000000 33.147579
RightShoulder -17.858047 -17.278198 -24.684938
RightArm 8.484924 -17.532302 90.085541
RightForeArm -27.192440 -0.000000 85.986644
RightHand 17.227872 0.000000 5.214772
RightHandThumb1 -24.326973 -0.000000 -32.862282
LeftUpLeg 6.087141 0.212104 -1.790595
LeftLeg 8.259574 -0.000000 -0.000000
LeftFoot -20.449927 22.211220 -16.936725
LeftToeBase 15.459069 -0.000000 -0.000000
RightUpLeg -86.612451 4.902077 9.874687
RightLeg 108.531225 -0.000000 -0.000000
RightFoot 5.707245 -35.931288 18.755648
RightToeBase 13.161071 -0.000000 -0.000000
125
root 5.087769 32.565275 1.644852 -6.856310 -3.151728 -5.181008
Spine 12.476268 9.469717 8.532686
Head -0.321781 -5.072626 -4.227424
LeftShoulder -17.778862 -2.174431 25.886299
LeftArm -3.036838 -16.311824 -83.282519
LeftForeArm -9.190219 -0.000000 122.681599
LeftHand 2.526851 -0.000000 9.587637
LeftHandThumb1 -26.253704 0.000000 33.147579
RightShoulder -17.795590 -17.075356 -24.777454
RightArm 8.612398 -17.423118 90.027638
RightForeArm -27.045629 0.000000 85.046309
RightHand 17.064045 -0.000000 5.149567
RightHandThumb1 -24.326973 -0.000000 -32.862282
LeftUpLeg 6.175949 0.156770 -1.826687
LeftLeg 8.343437 -0.000000 -0.000000
LeftFoot -20.571690 22.507587 -16.743933
LeftToeBase 15.189824 -0.000000 -0.000000
RightUpLeg -86.858217 5.196766 9.794116
RightLeg 108.305583 -0.000000 -0.000000
RightFoot 5.766771 -36.217990 18.671459
RightToeBase 13.138966 -0.000000 -0.000000
